<svg width="28" height="26" viewBox="0 0 28 26" fill="none" xmlns="http://www.w3.org/2000/svg">
<path d="M16.8978 26L13.4615 21.561H7.07966C6.75417 21.561 6.44201 21.4274 6.21185 21.1895C5.98169 20.9517 5.85239 20.6291 5.85239 20.2927V6.4721C5.85239 6.13573 5.98169 5.81313 6.21185 5.57528C6.44201 5.33743 6.75417 5.2038 7.07966 5.2038H26.716C27.0415 5.2038 27.3537 5.33743 27.5838 5.57528C27.814 5.81313 27.9433 6.13573 27.9433 6.4721V20.2927C27.9433 20.6291 27.814 20.9517 27.5838 21.1895C27.3537 21.4274 27.0415 21.561 26.716 21.561H20.3342L16.8978 26ZM19.1548 19.0244H25.4888V7.74039H8.30693V19.0244H14.6409L16.8978 21.9389L19.1548 19.0244ZM2.17057 0H23.0342V2.53659H3.39784V16.4878H0.943298V1.26829C0.943298 0.931921 1.0726 0.609325 1.30276 0.371474C1.53292 0.133623 1.84508 0 2.17057 0Z" fill="#5863F9"/>
</svg>
