<svg width="26" height="25" viewBox="0 0 26 25" fill="none" xmlns="http://www.w3.org/2000/svg">
<path d="M20.6723 17.9888L25.9433 23.2586L24.2019 25L18.9321 19.729C16.9713 21.3009 14.5325 22.1558 12.0194 22.1522C5.90539 22.1522 0.943298 17.1901 0.943298 11.0761C0.943298 4.9621 5.90539 0 12.0194 0C18.1334 0 23.0955 4.9621 23.0955 11.0761C23.0991 13.5892 22.2442 16.028 20.6723 17.9888ZM18.2036 17.0757C19.7654 15.4695 20.6377 13.3165 20.6342 11.0761C20.6342 6.31584 16.7784 2.46136 12.0194 2.46136C7.25914 2.46136 3.40466 6.31584 3.40466 11.0761C3.40466 15.8351 7.25914 19.6909 12.0194 19.6909C14.2598 19.6944 16.4128 18.8221 18.019 17.2603L18.2036 17.0757Z" fill="#5863F9"/>
</svg>
